<svg width="29" height="26" viewBox="0 0 29 26" fill="none" xmlns="http://www.w3.org/2000/svg">
<g clip-path="url(#clip0_583_1321)">
<path d="M21.7506 17.333V11.9163C21.7506 8.59051 19.769 5.80634 16.3132 5.06967V4.33301C16.3132 3.43384 15.5036 2.70801 14.5007 2.70801C13.4977 2.70801 12.6882 3.43384 12.6882 4.33301V5.06967C9.22023 5.80634 7.25065 8.57967 7.25065 11.9163V17.333L4.83398 19.4997V20.583H24.1673V19.4997L21.7506 17.333ZM15.709 17.333H13.2923V15.1663H15.709V17.333ZM15.709 12.9997H13.2923V8.66634H15.709V12.9997ZM14.5007 23.833C15.8298 23.833 16.9173 22.858 16.9173 21.6663H12.084C12.084 22.858 13.1594 23.833 14.5007 23.833Z" fill="#CF1B1B"/>
</g>
<defs>
<clipPath id="clip0_583_1321">
<rect width="29" height="26" fill="white"/>
</clipPath>
</defs>
</svg>
